<svg width="128" height="42" viewBox="0 0 128 42" fill="none" xmlns="http://www.w3.org/2000/svg">
<g clip-path="url(#clip0_201_3600)">
<path d="M63.9837 12.4929C61.907 12.4929 60.3906 13.1738 59.4017 14.5683C59.4017 13.6728 58.6778 12.9469 57.7847 12.9469H53.9297V23.6741C53.9297 26.7044 56.3796 29.161 59.4017 29.161V20.5351C59.4017 18.6218 60.3906 17.5841 62.1048 17.5841C63.5881 17.5841 64.5771 18.4597 64.5771 20.1459V23.6741C64.5771 26.7044 67.027 29.161 70.0491 29.161V19.4649C70.0491 14.9574 67.5438 12.4929 63.9837 12.4929Z" fill="#29304D"/>
<path d="M80.1667 29.615C82.639 29.615 84.7158 28.8043 86.3969 27.1505C88.1111 25.4966 88.9681 23.4536 88.9681 21.0539C88.9681 18.6542 88.1111 16.6437 86.3969 14.9898C84.7158 13.336 82.639 12.4929 80.1667 12.4929C77.7274 12.4929 75.6507 13.336 73.9365 14.9898C72.2224 16.6437 71.3653 18.6542 71.3653 21.0539C71.3653 23.4536 72.2224 25.4966 73.9365 27.1505C75.6507 28.8043 77.7274 29.615 80.1667 29.615ZM80.1667 24.4265C78.2878 24.4265 76.8703 23.0321 76.8703 21.0539C76.8703 19.0758 78.2878 17.6814 80.1667 17.6814C82.1116 17.6814 83.4961 19.0758 83.4961 21.0539C83.4961 23.0321 82.1116 24.4265 80.1667 24.4265Z" fill="#29304D"/>
<path d="M102.657 14.4386C101.536 13.1414 99.9868 12.4929 97.976 12.4929C95.7675 12.4929 93.9215 13.3036 92.4381 14.9574C90.9547 16.5788 90.2295 18.6218 90.2295 21.0539C90.2295 23.4861 90.9547 25.529 92.4381 27.1829C93.9215 28.8043 95.7675 29.615 97.976 29.615C99.9868 29.615 101.536 28.9665 102.657 27.6693C102.657 28.4932 103.323 29.161 104.145 29.161H108.129V6.46118C105.107 6.46118 102.657 8.91777 102.657 11.9481V14.4386ZM96.6904 23.6158C96.0641 22.9672 95.7345 22.1241 95.7345 21.0539C95.7345 19.9838 96.0641 19.1407 96.6904 18.4921C97.3168 17.8435 98.1738 17.5192 99.1957 17.5192C100.218 17.5192 101.075 17.8435 101.701 18.4921C102.327 19.1407 102.657 19.9838 102.657 21.0539C102.657 22.1241 102.327 22.9672 101.701 23.6158C101.075 24.2643 100.218 24.5886 99.1957 24.5886C98.1738 24.5886 97.3168 24.2643 96.6904 23.6158Z" fill="#29304D"/>
<path d="M122.026 14.4386C120.906 13.1414 119.356 12.4929 117.345 12.4929C115.137 12.4929 113.291 13.3036 111.808 14.9574C110.324 16.5788 109.599 18.6218 109.599 21.0539C109.599 23.4861 110.324 25.529 111.808 27.1829C113.291 28.8043 115.137 29.615 117.345 29.615C119.356 29.615 120.906 28.9665 122.026 27.6693C122.026 28.4932 122.692 29.161 123.514 29.161H127.498V12.9469H123.514C122.692 12.9469 122.026 13.6147 122.026 14.4386ZM116.06 23.6158C115.434 22.9672 115.104 22.1241 115.104 21.0539C115.104 19.9838 115.434 19.1407 116.06 18.4921C116.686 17.8435 117.543 17.5192 118.565 17.5192C119.587 17.5192 120.444 17.8435 121.07 18.4921C121.697 19.1407 122.026 19.9838 122.026 21.0539C122.026 22.1241 121.697 22.9672 121.07 23.6158C120.444 24.2643 119.587 24.5886 118.565 24.5886C117.543 24.5886 116.686 24.2643 116.06 23.6158Z" fill="#29304D"/>
<g filter="url(#filter0_d_201_3600)">
<path fill-rule="evenodd" clip-rule="evenodd" d="M16.8901 0C7.8381 0 0.5 7.35811 0.5 16.4348V25.5652C0.5 34.6419 7.8381 42 16.8901 42H25.9957C35.0477 42 42.3858 34.6419 42.3858 25.5652V16.4348C42.3858 7.3581 35.0477 0 25.9957 0H16.8901ZM18.5183 13.7548C19.6878 12.1106 21.4811 11.3076 23.9372 11.3076C28.1475 11.3076 31.1103 14.2136 31.1103 19.5286V30.9615C27.5362 30.9615 24.6389 28.0562 24.6389 24.4724V20.3316C24.6389 18.3432 23.4693 17.3108 21.715 17.3108C19.6878 17.3108 18.5183 18.5344 18.5183 20.7904V30.9615C14.9442 30.9615 12.0469 28.0562 12.0469 24.4724V11.8429H16.6116C17.6647 11.8429 18.5183 12.6989 18.5183 13.7548Z" fill="url(#paint0_linear_201_3600)"/>
</g>
</g>
<defs>
<filter id="filter0_d_201_3600" x="-25.5331" y="-13.0165" width="93.952" height="94.0661" filterUnits="userSpaceOnUse" color-interpolation-filters="sRGB">
<feFlood flood-opacity="0" result="BackgroundImageFix"/>
<feColorMatrix in="SourceAlpha" type="matrix" values="0 0 0 0 0 0 0 0 0 0 0 0 0 0 0 0 0 0 127 0" result="hardAlpha"/>
<feOffset dy="13.0165"/>
<feGaussianBlur stdDeviation="13.0165"/>
<feColorMatrix type="matrix" values="0 0 0 0 0.160784 0 0 0 0 0.188235 0 0 0 0 0.301961 0 0 0 0.05 0"/>
<feBlend mode="normal" in2="BackgroundImageFix" result="effect1_dropShadow_201_3600"/>
<feBlend mode="normal" in="SourceGraphic" in2="effect1_dropShadow_201_3600" result="shape"/>
</filter>
<linearGradient id="paint0_linear_201_3600" x1="21.4988" y1="-6.82744e-10" x2="21.4868" y2="42" gradientUnits="userSpaceOnUse">
<stop stop-color="#6936D3"/>
<stop offset="1" stop-color="#F16F6F"/>
</linearGradient>
<clipPath id="clip0_201_3600">
<rect width="127" height="42" fill="white" transform="translate(0.5)"/>
</clipPath>
</defs>
</svg>
