<svg width="97" height="32" viewBox="0 0 97 32" fill="none" xmlns="http://www.w3.org/2000/svg">
<g clip-path="url(#clip0)">
<path d="M48.3888 9.5185C46.8059 9.5185 45.6501 10.0373 44.8964 11.0997C44.8964 10.4175 44.3446 9.8644 43.6639 9.8644H40.7256V18.0375C40.7256 20.3463 42.5929 22.218 44.8964 22.218V15.6459C44.8964 14.1882 45.6501 13.3975 46.9567 13.3975C48.0873 13.3975 48.8411 14.0646 48.8411 15.3494V18.0375C48.8411 20.3463 50.7084 22.218 53.0119 22.218V14.8305C53.0119 11.3962 51.1023 9.5185 48.3888 9.5185Z" fill="#6936D3"/>
<path d="M60.7236 22.5639C62.608 22.5639 64.1909 21.9462 65.4723 20.6862C66.7788 19.4261 67.432 17.8695 67.432 16.0412C67.432 14.2129 66.7788 12.681 65.4723 11.4209C64.1909 10.1609 62.608 9.5185 60.7236 9.5185C58.8643 9.5185 57.2814 10.1609 55.9749 11.4209C54.6684 12.681 54.0151 14.2129 54.0151 16.0412C54.0151 17.8695 54.6684 19.4261 55.9749 20.6862C57.2814 21.9462 58.8643 22.5639 60.7236 22.5639ZM60.7236 18.6108C59.2914 18.6108 58.2111 17.5483 58.2111 16.0412C58.2111 14.5341 59.2914 13.4716 60.7236 13.4716C62.206 13.4716 63.2612 14.5341 63.2612 16.0412C63.2612 17.5483 62.206 18.6108 60.7236 18.6108Z" fill="#6936D3"/>
<path d="M77.8658 11.0009C77.0116 10.0126 75.8307 9.5185 74.298 9.5185C72.6146 9.5185 71.2076 10.1362 70.077 11.3962C68.9463 12.6316 68.3936 14.1882 68.3936 16.0412C68.3936 17.8943 68.9463 19.4508 70.077 20.7109C71.2076 21.9462 72.6146 22.5639 74.298 22.5639C75.8307 22.5639 77.0116 22.0698 77.8658 21.0815C77.8658 21.7092 78.3735 22.218 78.9997 22.218H82.0371V4.9229C79.7332 4.9229 77.8658 6.7946 77.8658 9.1034V11.0009ZM73.3181 17.9931C72.8408 17.4989 72.5895 16.8565 72.5895 16.0412C72.5895 15.2259 72.8408 14.5835 73.3181 14.0893C73.7955 13.5952 74.4488 13.3481 75.2277 13.3481C76.0065 13.3481 76.6598 13.5952 77.1372 14.0893C77.6146 14.5835 77.8658 15.2259 77.8658 16.0412C77.8658 16.8565 77.6146 17.4989 77.1372 17.9931C76.6598 18.4872 76.0065 18.7343 75.2277 18.7343C74.4488 18.7343 73.7955 18.4872 73.3181 17.9931Z" fill="#6936D3"/>
<path d="M92.6292 11.0009C91.7752 10.0126 90.5942 9.5185 89.0612 9.5185C87.3782 9.5185 85.9712 10.1362 84.8402 11.3962C83.7102 12.6316 83.1572 14.1882 83.1572 16.0412C83.1572 17.8943 83.7102 19.4508 84.8402 20.7109C85.9712 21.9462 87.3782 22.5639 89.0612 22.5639C90.5942 22.5639 91.7752 22.0698 92.6292 21.0815C92.6292 21.7092 93.1372 22.218 93.7632 22.218H96.8002V9.8644H93.7632C93.1372 9.8644 92.6292 10.3732 92.6292 11.0009ZM88.0822 17.9931C87.6042 17.4989 87.3532 16.8565 87.3532 16.0412C87.3532 15.2259 87.6042 14.5835 88.0822 14.0893C88.5592 13.5952 89.2122 13.3481 89.9912 13.3481C90.7702 13.3481 91.4232 13.5952 91.9012 14.0893C92.3782 14.5835 92.6292 15.2259 92.6292 16.0412C92.6292 16.8565 92.3782 17.4989 91.9012 17.9931C91.4232 18.4872 90.7702 18.7343 89.9912 18.7343C89.2122 18.7343 88.5592 18.4872 88.0822 17.9931Z" fill="#6936D3"/>
<g filter="url(#filter0_d)">
<path d="M0 12.5217C0 5.6062 5.5931 0 12.4926 0H19.433C26.3324 0 31.9256 5.6062 31.9256 12.5217V19.4783C31.9256 26.3938 26.3324 32 19.433 32H12.4926C5.5931 32 0 26.3938 0 19.4783V12.5217Z" fill="url(#paint0_linear)"/>
</g>
<path d="M17.8626 8.6152C15.9906 8.6152 14.6238 9.227 13.7324 10.4797C13.7324 9.6752 13.0817 9.023 12.2791 9.023H8.7998V18.6455C8.7998 21.376 11.0082 23.5895 13.7324 23.5895V15.8402C13.7324 14.1213 14.6238 13.1891 16.1689 13.1891C17.5061 13.1891 18.3975 13.9756 18.3975 15.4906V18.6455C18.3975 21.376 20.6059 23.5895 23.33 23.5895V14.8788C23.33 10.8293 21.0718 8.6152 17.8626 8.6152Z" fill="white"/>
</g>
<defs>
<filter id="filter0_d" x="-20" y="-10" width="71.9256" height="72" filterUnits="userSpaceOnUse" color-interpolation-filters="sRGB">
<feFlood flood-opacity="0" result="BackgroundImageFix"/>
<feColorMatrix in="SourceAlpha" type="matrix" values="0 0 0 0 0 0 0 0 0 0 0 0 0 0 0 0 0 0 127 0"/>
<feOffset dy="10"/>
<feGaussianBlur stdDeviation="10"/>
<feColorMatrix type="matrix" values="0 0 0 0 0.160784 0 0 0 0 0.188235 0 0 0 0 0.301961 0 0 0 0.05 0"/>
<feBlend mode="normal" in2="BackgroundImageFix" result="effect1_dropShadow"/>
<feBlend mode="normal" in="SourceGraphic" in2="effect1_dropShadow" result="shape"/>
</filter>
<linearGradient id="paint0_linear" x1="16.0054" y1="-2.24101e-10" x2="15.9962" y2="32" gradientUnits="userSpaceOnUse">
<stop stop-color="#6936D3"/>
<stop offset="1" stop-color="#F16F6F"/>
</linearGradient>
<clipPath id="clip0">
<rect width="97" height="32" fill="white"/>
</clipPath>
</defs>
</svg>
